# xmcd
#
# Track frame offsets:
#       150
#       18426
#       37832
#       57902
#       74289
#       98266
#
# Disc length: 1626 seconds
#
# Revision: 1
# Processed by: cddbd v1.5.2PL0 Copyright (c) Steve Scherf et al.
# Submitted via: MusiCat 1.1
#
DISCID=3d065806
DTITLE=Cat Power - Dark End Of The Street
DYEAR=1900
DGENRE=
TTITLE0=Dark End Of The Street
TTITLE1=Fortunate Son
TTITLE2=Ye Auld Triangle
TTITLE3=I've Been Loving You Too Long
TTITLE4=Who Knows Where The Time Goes
TTITLE5=It Aint Fair
EXTD=\n\n
EXTT0=
EXTT1=
EXTT2=
EXTT3=
EXTT4=
EXTT5=
PLAYORDER=
